<?xml version="1.0" standalone="no"?>
<!DOCTYPE svg PUBLIC "-//W3C//DTD SVG 20010904//EN"
 "http://www.w3.org/TR/2001/REC-SVG-20010904/DTD/svg10.dtd">
<svg version="1.0" xmlns="http://www.w3.org/2000/svg"
 width="600.000000pt" height="600.000000pt" viewBox="0 0 600.000000 600.000000"
 preserveAspectRatio="xMidYMid meet">
<metadata>
Created by potrace 1.11, written by Peter Selinger 2001-2013
</metadata>
<g transform="translate(0.000000,600.000000) scale(0.100000,-0.100000)"
fill="#000000" stroke="none">
<path d="M2345 5802 c-24 -5 -75 -40 -75 -51 0 -4 11 -13 25 -19 23 -11 62
-72 71 -116 12 -51 12 -243 1 -263 -7 -12 -44 -68 -83 -125 -69 -101 -81 -122
-123 -221 -74 -171 -68 -362 14 -459 l26 -30 -88 -30 c-116 -38 -247 -102
-303 -147 -61 -49 -199 -187 -235 -236 -17 -22 -33 -42 -36 -45 -12 -10 -79
-121 -79 -130 0 -6 -4 -10 -9 -10 -8 0 -21 -29 -25 -55 0 -5 -6 -19 -13 -31
-7 -11 -14 -32 -17 -45 -3 -13 -10 -44 -16 -69 -11 -44 -15 -181 -7 -230 16
-90 52 -180 104 -257 24 -35 21 -63 -6 -64 -32 -1 -150 -28 -166 -38 -5 -3
-15 -6 -20 -7 -6 -1 -33 -12 -60 -24 -28 -13 -51 -22 -53 -21 -14 9 -252 -183
-252 -203 0 -3 -11 -16 -24 -30 -13 -14 -34 -47 -47 -73 -13 -27 -27 -50 -30
-53 -13 -10 -58 -149 -74 -226 -31 -151 -16 -296 46 -439 23 -52 80 -139 115
-172 18 -18 30 -33 26 -34 -4 -1 -29 -2 -57 -4 -27 -1 -50 -3 -50 -4 0 -1 -21
-4 -47 -6 -75 -6 -166 -34 -264 -82 -94 -45 -102 -50 -188 -125 -90 -80 -188
-228 -231 -353 -9 -27 -20 -57 -23 -65 -8 -22 -12 -41 -18 -79 -2 -18 -8 -41
-12 -50 -10 -20 -16 -78 -16 -156 1 -94 19 -170 65 -263 41 -82 38 -78 124
-167 75 -77 140 -123 245 -172 60 -28 172 -67 224 -77 104 -22 129 -25 137
-20 5 3 9 1 9 -3 0 -8 46 -13 133 -16 15 0 27 -4 27 -9 0 -4 11 -3 24 2 13 5
26 6 29 4 8 -8 102 -8 114 -1 7 4 14 3 18 -2 3 -5 15 -8 28 -5 12 2 56 7 97
10 41 3 91 7 110 9 50 4 160 16 195 22 17 2 44 6 60 7 33 3 115 15 155 22 101
19 127 20 225 10 39 -4 132 -9 208 -11 75 -2 141 -7 146 -10 5 -3 12 -1 16 5
4 6 11 8 16 4 9 -5 197 -13 426 -17 51 -1 93 -4 93 -7 0 -3 33 -5 73 -5 39 0
76 -2 82 -5 5 -2 42 -5 80 -5 39 -1 76 -5 83 -9 7 -4 12 -2 12 4 0 7 7 8 18 3
9 -5 68 -8 129 -8 62 0 113 -2 113 -5 0 -13 1241 -19 1407 -7 89 6 119 9 228
23 28 4 64 8 80 10 17 1 30 3 30 4 0 1 12 4 28 6 92 15 294 89 341 124 52 40
112 102 144 149 53 78 102 168 102 186 0 8 5 15 12 15 6 0 9 3 5 6 -3 3 3 25
13 49 19 43 21 52 38 155 13 75 7 213 -13 290 -19 75 -88 221 -116 246 -11 9
-19 22 -19 27 0 20 -195 202 -270 252 -41 28 -77 53 -80 57 -3 4 -60 35 -127
70 -118 62 -122 65 -108 85 29 42 57 195 56 308 -2 252 -58 442 -179 609 -37
51 -160 158 -172 151 -4 -3 -13 2 -20 10 -7 8 -21 15 -31 15 -11 0 -19 5 -19
11 0 5 -4 7 -10 4 -5 -3 -10 -2 -10 2 0 5 -8 10 -17 11 -22 2 -58 10 -58 12 0
4 -46 11 -105 16 -93 8 -92 7 -75 47 42 102 67 353 43 447 -12 48 -39 110 -48
110 -5 0 -11 11 -14 25 -4 14 -11 25 -16 25 -6 0 -10 5 -10 11 0 13 -106 143
-147 180 -126 115 -277 177 -427 175 l-77 -2 7 41 c3 22 10 48 16 58 19 37 16
234 -5 323 -27 112 -135 344 -159 344 -5 0 -8 5 -8 11 0 18 -120 160 -220 259
-96 95 -119 115 -240 210 -36 28 -73 57 -83 65 -9 8 -21 15 -26 15 -5 0 -15 7
-22 16 -7 9 -22 20 -34 25 -18 8 -71 44 -100 67 -24 19 -256 151 -310 177 -33
15 -91 37 -130 48 -67 19 -197 29 -240 19z"/>
</g>
</svg>
